<?xml version="1.0" standalone="no"?>
<!DOCTYPE svg PUBLIC "-//W3C//DTD SVG 20010904//EN"
 "http://www.w3.org/TR/2001/REC-SVG-20010904/DTD/svg10.dtd">
<svg version="1.0" xmlns="http://www.w3.org/2000/svg"
 width="600.000000pt" height="599.000000pt" viewBox="0 0 600.000000 599.000000"
 preserveAspectRatio="xMidYMid meet">
<g transform="translate(0.000000,599.000000) scale(0.100000,-0.100000)"
fill="#000000" stroke="none">
<path d="M20 2995 l0 -2985 2985 0 2985 0 0 2985 0 2985 -2985 0 -2985 0 0
-2985z m2050 1773 c48 -11 57 -18 117 -92 35 -44 75 -99 89 -122 14 -24 41
-52 59 -63 l34 -20 98 45 c135 63 127 60 229 93 491 161 1026 128 1479 -90
182 -87 265 -139 410 -256 219 -177 391 -388 523 -642 l55 -106 41 3 c83 6
165 -53 190 -139 14 -45 13 -54 -4 -105 -23 -70 -65 -114 -133 -140 -51 -19
-94 -19 -1932 -19 l-1880 0 -45 21 c-93 43 -134 102 -134 196 -1 59 2 70 30
105 16 21 47 46 67 56 39 20 42 28 27 92 -5 22 -15 67 -22 100 -13 55 -16 60
-45 66 -36 7 -80 52 -88 89 -22 96 -41 148 -66 182 -16 22 -31 56 -35 75 -8
42 10 106 35 130 12 12 23 46 30 98 7 44 20 115 29 157 16 71 20 79 59 107 80
58 186 107 283 132 228 57 390 73 500 47z m2727 -630 c-3 -8 -6 -5 -6 6 -1 11
2 17 5 13 3 -3 4 -12 1 -19z m-3885 -1428 l-45 -90 39 -96 c21 -52 42 -98 46
-100 19 -12 5 -25 -24 -22 -30 3 -34 8 -58 75 -14 40 -31 73 -37 73 -14 0 -16
-14 -13 -97 1 -52 1 -53 -27 -53 l-28 0 -1 200 -1 200 29 0 29 0 -5 -81 c-2
-46 -9 -85 -16 -89 -6 -4 -10 -24 -8 -45 3 -37 4 -38 21 -21 10 10 24 15 32
12 12 -4 12 -1 3 19 -6 13 -15 22 -21 18 -13 -8 -1 29 39 114 25 53 39 73 56
75 13 2 26 3 29 1 4 -2 -14 -43 -39 -93z m3071 2 l-2 -82 45 0 46 0 -3 85 -4
85 28 0 27 0 0 -190 c0 -104 0 -193 0 -197 0 -5 -12 -8 -27 -8 l-27 0 3 88 3
87 -47 0 -47 0 3 -87 4 -88 -27 -3 -28 -3 0 204 0 205 28 -7 c27 -7 27 -8 25
-89z m-3029 -23 c-27 -50 -49 -88 -51 -82 -2 5 18 52 43 104 26 52 49 89 51
82 2 -6 -17 -53 -43 -104z m211 79 c3 -18 12 -60 20 -93 7 -33 21 -96 30 -140
9 -44 21 -90 26 -103 7 -17 5 -24 -5 -28 -31 -12 -51 1 -56 36 -5 34 -7 35
-52 38 l-47 3 -3 -38 c-2 -27 -8 -39 -21 -41 -28 -5 -50 6 -40 20 4 7 14 40
21 73 7 33 19 89 27 125 7 36 19 91 25 123 11 53 14 57 40 57 24 0 29 -5 35
-32z m167 -68 c10 -52 20 -110 22 -129 5 -38 13 -50 20 -30 5 13 32 158 43
227 4 27 9 32 34 32 33 0 32 2 19 -53 -31 -135 -64 -286 -68 -315 -4 -30 -7
-33 -35 -30 -30 3 -32 6 -43 68 -14 74 -35 176 -56 268 l-15 63 31 -3 c31 -3
31 -3 48 -98z m300 55 c4 -22 17 -83 28 -135 12 -52 26 -115 30 -140 5 -25 11
-53 15 -62 6 -15 2 -18 -22 -18 -26 0 -31 5 -39 38 -9 36 -10 37 -54 37 -44 0
-45 -1 -50 -35 -4 -30 -9 -35 -34 -38 -26 -3 -28 -1 -22 22 3 14 17 76 30 138
14 62 28 127 31 143 4 17 9 45 12 63 5 30 8 33 36 30 28 -3 32 -7 39 -43z
m298 17 c20 -18 25 -35 28 -88 4 -55 1 -70 -17 -94 -26 -35 -26 -33 -1 -110
26 -80 26 -80 -9 -80 -28 0 -30 3 -42 58 -6 31 -12 64 -14 72 -1 8 -14 16 -30
18 l-28 4 5 -77 5 -76 -29 3 -29 3 -2 198 -2 199 70 -4 c56 -2 76 -8 95 -26z
m156 2 c-4 -15 -10 -39 -13 -55 -5 -28 -30 -46 -44 -32 -4 4 -5 32 -2 61 5 50
7 52 35 52 28 0 30 -2 24 -26z m212 10 c26 -18 55 -71 49 -88 -9 -22 -51 -12
-57 14 -12 53 -72 51 -78 -2 -2 -20 11 -40 61 -90 69 -70 83 -104 62 -153 -14
-35 -54 -65 -86 -65 -31 0 -86 37 -93 63 -12 46 -7 57 23 57 25 0 30 -4 33
-27 2 -22 9 -29 32 -31 30 -4 46 10 46 41 0 11 -29 49 -65 87 -71 73 -87 114
-63 160 25 47 93 64 136 34z m298 -69 c-6 -88 3 -109 24 -52 48 129 53 137 91
137 l28 0 -21 -37 c-41 -69 -76 -151 -68 -159 4 -5 17 -36 29 -69 12 -33 31
-75 42 -93 24 -42 25 -42 -12 -42 -32 0 -42 14 -71 108 -21 68 -38 53 -38 -33
l0 -75 -30 0 -30 0 0 200 0 200 31 0 32 0 -7 -85z m256 -82 l3 -168 35 0 35 0
3 168 2 167 30 0 30 0 0 -166 0 -166 -34 -34 c-46 -46 -87 -46 -129 -1 l-31
33 -1 167 -1 167 28 0 28 0 2 -167z m362 134 c23 -24 26 -37 26 -96 0 -59 -3
-71 -24 -90 -18 -17 -22 -28 -16 -40 11 -20 40 -116 40 -130 0 -6 -13 -11 -30
-11 -21 0 -30 5 -30 17 0 9 -7 43 -16 75 -14 48 -20 58 -39 58 -21 0 -22 -3
-17 -75 l5 -75 -32 0 -31 0 0 201 0 201 69 -4 c61 -3 73 -7 95 -31z m220 23
c50 -18 58 -47 57 -191 -1 -73 -6 -140 -12 -150 -15 -30 -64 -49 -121 -49
l-53 0 0 200 0 200 52 0 c28 0 63 -4 77 -10z m176 -190 l0 -200 -27 0 -28 0 0
200 0 200 28 0 27 0 0 -200z m232 168 c18 -23 34 -66 27 -72 -2 -2 -16 -6 -31
-10 -24 -6 -28 -3 -28 17 0 47 -47 63 -74 25 -19 -26 -11 -42 49 -99 93 -89
107 -139 51 -195 -24 -24 -43 -34 -65 -34 -40 0 -89 44 -97 88 -6 30 -5 32 24
32 26 0 31 -4 34 -27 3 -25 7 -28 38 -28 32 0 35 3 38 31 3 26 -6 39 -52 84
-99 96 -109 162 -31 208 30 19 96 8 117 -20z m633 2 c20 -19 25 -33 25 -76 0
-34 -5 -56 -15 -64 -14 -12 -13 -15 5 -35 14 -15 20 -35 20 -68 0 -90 -39
-127 -134 -127 l-55 0 -3 196 c-2 108 -1 198 2 201 3 3 33 3 67 1 48 -3 68 -9
88 -28z m239 13 c3 -10 9 -43 15 -73 6 -30 20 -98 31 -150 37 -168 37 -162 4
-158 -25 3 -30 8 -34 38 -5 34 -6 35 -50 35 -45 0 -45 0 -48 -37 -3 -35 -6
-38 -34 -38 -35 0 -37 -24 16 225 20 94 36 171 36 173 0 1 13 2 29 2 20 0 31
-6 35 -17z m285 1 c57 -34 71 -141 25 -201 -19 -25 -23 -37 -15 -46 5 -7 13
-32 17 -55 4 -23 11 -45 15 -48 20 -12 8 -34 -19 -34 -25 0 -29 5 -45 58 -9
32 -17 66 -17 75 0 12 -8 17 -26 17 -25 0 -25 -1 -23 -72 l2 -73 -27 0 -27 0
-2 198 -2 197 58 0 c36 0 70 -6 86 -16z m266 -14 c21 -20 25 -32 25 -81 0 -51
-3 -58 -22 -65 l-23 -7 22 -10 c30 -13 43 -83 27 -144 -10 -37 -63 -63 -128
-63 l-56 0 0 201 0 201 65 -4 c50 -3 70 -9 90 -28z m265 1 l0 -30 -55 6 -55 6
0 -65 0 -64 35 4 c33 4 35 3 35 -26 0 -30 -1 -31 -35 -25 l-35 6 0 -62 0 -61
55 0 c54 0 55 0 55 -30 l0 -30 -85 0 -85 0 0 200 0 200 85 0 85 0 0 -29z m226
-6 c20 -25 24 -42 24 -96 0 -57 -3 -69 -24 -88 -18 -17 -22 -28 -16 -40 9 -15
40 -122 40 -135 0 -3 -13 -6 -30 -6 -22 0 -30 5 -30 17 0 9 -8 43 -17 75 -15
49 -21 58 -38 56 -18 -3 -20 -9 -17 -75 l4 -73 -31 0 -31 0 0 201 0 201 71 -4
c65 -3 74 -7 95 -33z m-4526 21 c0 -3 -4 -8 -10 -11 -5 -3 -10 -1 -10 4 0 6 5
11 10 11 6 0 10 -2 10 -4z m1515 -61 c-13 -25 -29 -61 -35 -80 -11 -32 -30
-48 -30 -25 0 6 4 10 10 10 5 0 7 7 4 15 -4 8 -2 15 2 15 5 0 20 27 34 59 13
33 28 57 32 55 4 -3 -4 -25 -17 -49z m-628 13 c-3 -8 -6 -5 -6 6 -1 11 2 17 5
13 3 -3 4 -12 1 -19z m-880 -35 c-3 -10 -5 -4 -5 12 0 17 2 24 5 18 2 -7 2
-21 0 -30z m4313 -1 c0 -15 -8 -18 -50 -18 -67 0 -69 23 -2 29 26 2 48 4 50 5
1 1 2 -6 2 -16z m-3290 -7 c0 -8 -2 -15 -4 -15 -2 0 -6 7 -10 15 -3 8 -1 15 4
15 6 0 10 -7 10 -15z m1520 0 c0 -8 -2 -15 -4 -15 -2 0 -6 7 -10 15 -3 8 -1
15 4 15 6 0 10 -7 10 -15z m-2520 -50 c0 -25 -15 -24 -16 1 -1 13 2 21 7 18 5
-3 9 -11 9 -19z m227 -17 c-3 -7 -5 -2 -5 12 0 14 2 19 5 13 2 -7 2 -19 0 -25z
m603 11 c0 -15 -4 -17 -22 -10 -13 4 -35 5 -50 0 -20 -5 -28 -4 -28 5 0 21 11
26 57 24 34 -1 43 -5 43 -19z m104 -61 c18 -17 24 -28 15 -28 -26 0 -72 50
-84 90 -7 24 -6 23 16 -5 13 -16 36 -42 53 -57z m176 67 c0 -19 -50 -20 -75
-1 -17 12 -14 13 28 14 35 1 47 -2 47 -13z m1523 6 c4 -1 7 -5 7 -11 0 -11
-49 -14 -74 -4 -30 12 -16 25 22 20 20 -3 40 -5 45 -5z m643 -33 c-13 -18 -16
-19 -16 -5 0 9 5 17 10 17 6 0 10 8 11 18 0 10 3 12 6 5 2 -7 -3 -23 -11 -35z
m-808 -67 c-14 -5 -78 63 -78 83 0 8 20 -6 44 -32 25 -26 40 -49 34 -51z
m1593 68 c-5 -13 -10 -19 -10 -12 -1 15 10 45 15 40 3 -2 0 -15 -5 -28z
m-4054 -41 c-3 -8 -6 -5 -6 6 -1 11 2 17 5 13 3 -3 4 -12 1 -19z m713 -18 c-6
-11 -15 -18 -21 -15 -5 4 -1 16 8 30 21 27 30 16 13 -15z m-513 -2 c-3 -7 -5
-2 -5 12 0 14 2 19 5 13 2 -7 2 -19 0 -25z m1792 -4 c-6 -16 -13 -24 -16 -17
-5 13 16 58 23 50 3 -2 -1 -17 -7 -33z m1821 28 c0 -5 -6 -17 -14 -28 -19 -25
-31 -12 -14 15 13 21 28 28 28 13z m730 -4 c0 -7 -7 -22 -15 -32 -12 -16 -15
-17 -15 -4 0 24 11 48 21 48 5 0 9 -6 9 -12z m-1780 -49 c0 -11 -4 -17 -10
-14 -5 3 -10 13 -10 21 0 8 5 14 10 14 6 0 10 -9 10 -21z m1488 3 c-2 -7 -6
-13 -10 -13 -5 1 -19 1 -33 1 -15 0 -25 6 -25 14 0 10 11 14 35 13 24 -1 35
-5 33 -15z m-4241 -24 c-3 -7 -5 -2 -5 12 0 14 2 19 5 13 2 -7 2 -19 0 -25z
m978 -6 c-8 -8 -25 10 -19 20 4 6 9 5 15 -3 4 -7 6 -15 4 -17z m1525 -5 c0 -5
-4 -5 -10 -2 -5 3 -10 14 -10 23 0 15 2 15 10 2 5 -8 10 -19 10 -23z m-2323 1
c-3 -8 -6 -5 -6 6 -1 11 2 17 5 13 3 -3 4 -12 1 -19z m-157 -49 c0 -11 -4 -18
-10 -14 -5 3 -7 12 -3 20 7 21 13 19 13 -6z m878 -56 c52 -43 132 -25 180 40
22 29 23 30 17 7 -4 -14 -22 -40 -42 -59 -33 -31 -38 -33 -94 -29 -46 3 -64
10 -82 28 -29 32 -45 62 -39 78 2 8 10 2 19 -15 8 -15 26 -38 41 -50z m602 46
c0 -5 8 -18 18 -28 55 -58 137 -55 189 7 15 18 23 22 23 12 -1 -41 -60 -80
-120 -80 -55 0 -94 22 -114 64 -18 39 -20 50 -6 41 6 -3 10 -11 10 -16z m1745
-28 c-8 -17 -28 -37 -43 -45 -36 -18 -184 -24 -190 -8 -3 9 20 12 75 12 88 0
134 20 155 66 7 14 14 22 16 16 2 -6 -4 -24 -13 -41z m799 14 c-4 -15 -22 -37
-43 -50 -33 -22 -47 -24 -168 -26 -124 -1 -153 3 -153 19 0 4 61 6 136 4 131
-3 137 -3 174 22 21 14 41 35 45 46 10 30 17 18 9 -15z m-4179 14 c10 -15 -1
-23 -20 -15 -9 3 -13 10 -10 16 8 13 22 13 30 -1z m298 -9 c3 -11 1 -18 -4
-14 -5 3 -9 12 -9 20 0 20 7 17 13 -6z m167 10 c0 -20 -5 -25 -20 -22 -20 5
-23 9 -15 21 8 14 35 14 35 1z m1893 -39 c-34 -45 -58 -51 -205 -51 -104 0
-138 3 -138 13 0 9 33 11 140 9 l141 -3 37 38 c40 41 57 37 25 -6z m382 20
c-24 -47 -62 -71 -112 -71 -49 0 -78 12 -105 44 -32 39 -18 49 17 13 30 -31
43 -37 78 -37 49 1 77 14 107 53 28 35 34 35 15 -2z m815 14 c0 -8 -9 -15 -20
-15 -11 0 -20 7 -20 15 0 8 9 15 20 15 11 0 20 -7 20 -15z m260 -25 c0 -11 -4
-20 -8 -20 -4 0 -8 9 -9 20 -1 11 2 20 8 20 5 0 9 -9 9 -20z m727 -2 c-3 -8
-6 -5 -6 6 -1 11 2 17 5 13 3 -3 4 -12 1 -19z m-4817 -9 c0 -6 -4 -7 -10 -4
-5 3 -10 11 -10 16 0 6 5 7 10 4 6 -3 10 -11 10 -16z m1780 0 c0 -5 -4 -9 -10
-9 -5 0 -10 7 -10 16 0 8 5 12 10 9 6 -3 10 -10 10 -16z m-1280 -29 c27 0 42
6 49 18 12 20 13 6 2 -23 -6 -16 -16 -19 -57 -16 -27 1 -50 3 -50 4 -1 1 -5
13 -9 27 -7 23 -7 23 9 7 11 -10 33 -17 56 -17z m197 -3 c-9 -19 -17 -22 -61
-21 -71 3 -73 24 -2 24 44 0 56 3 56 16 0 8 4 13 9 10 5 -4 5 -15 -2 -29z
m-298 -1 c23 -15 0 -23 -51 -18 -58 5 -62 7 -55 19 6 10 90 9 106 -1z m482 4
c72 0 99 -3 99 -12 0 -16 -211 -18 -222 -3 -13 17 -9 27 8 21 9 -3 60 -6 115
-6z m234 -11 c0 -10 -13 -13 -50 -10 -54 3 -60 5 -52 18 9 14 102 7 102 -8z
m642 -2 c-4 -12 -105 -18 -113 -5 -11 17 6 23 61 20 34 -3 55 -8 52 -15z m143
-1 c0 -10 -13 -12 -47 -9 -74 7 -83 17 -23 23 62 6 70 4 70 -14z m868 8 c-2
-13 -14 -17 -50 -16 -68 1 -68 1 -68 12 0 5 26 11 58 13 31 2 58 4 60 5 2 1 2
-5 0 -14z m372 -4 c0 -21 -104 -19 -108 2 -2 10 12 13 53 13 43 0 55 -3 55
-15z m138 1 c4 -12 -5 -14 -63 -11 -44 2 -50 4 -42 17 8 12 101 7 105 -6z
m500 3 c-2 -13 -16 -17 -58 -17 -30 -1 -55 3 -55 8 0 6 25 13 55 16 30 3 56 6
58 7 2 1 2 -5 0 -14z m290 -5 c-6 -17 -222 -14 -226 3 -2 10 21 12 113 10 73
-2 115 -7 113 -13z m730 -1 c-4 -11 -94 -15 -105 -5 -3 4 -10 4 -15 1 -11 -7
-208 -7 -215 0 -17 16 23 21 172 18 115 -2 165 -6 163 -14z m143 6 c10 -6 -2
-11 -36 -14 -57 -6 -75 -3 -75 14 0 13 91 13 111 0z m-4963 -5 c-5 -15 -111
-15 -116 0 -2 7 16 11 58 11 42 0 60 -4 58 -11z m250 0 c-2 -6 -42 -10 -103
-10 -129 0 -125 -1 -125 11 0 6 45 10 116 10 77 0 114 -4 112 -11z m2032 -1
c0 -9 -16 -13 -52 -12 -73 2 -76 24 -4 24 38 0 56 -4 56 -12z m1964 -329 c83
-14 134 -51 168 -119 15 -30 28 -70 28 -88 0 -72 -74 -174 -135 -187 -14 -3
-36 -7 -48 -10 -13 -2 -38 0 -56 5 -22 6 -34 5 -41 -3 -5 -7 -44 -59 -86 -117
-43 -58 -127 -155 -188 -215 -381 -380 -881 -585 -1425 -585 -180 0 -430 39
-580 90 -35 12 -71 18 -80 14 -19 -7 -124 -31 -196 -44 -65 -11 -247 -12 -304
-1 -51 10 -77 37 -167 169 -33 48 -74 95 -99 112 -58 40 -85 86 -85 144 0 26
4 56 10 66 7 13 3 42 -11 101 -18 68 -30 93 -68 139 -26 31 -57 73 -69 92 -22
35 -24 36 -59 26 -77 -21 -176 28 -213 104 -60 125 24 273 175 307 60 13 3453
14 3529 0z"/>
<path d="M1825 4724 c-180 -24 -338 -72 -452 -136 -63 -35 -90 -68 -99 -117
-3 -20 -13 -64 -21 -99 -16 -69 -13 -84 14 -60 34 30 177 100 267 130 242 80
542 120 659 87 22 -6 41 -8 44 -6 7 7 -115 165 -140 181 -22 14 -125 37 -156
35 -9 -1 -61 -7 -116 -15z m213 -31 c38 -5 49 -13 89 -65 25 -33 44 -61 42
-62 -2 -2 -32 -1 -67 2 -51 4 -65 8 -74 26 -6 11 -26 40 -44 63 -40 49 -42 58
-11 49 12 -3 41 -9 65 -13z m-279 -52 c6 -22 18 -52 26 -68 15 -28 14 -28 -18
-34 -53 -10 -131 -31 -147 -39 -9 -4 -31 -11 -50 -15 -19 -4 -50 -14 -68 -22
-18 -9 -35 -13 -38 -10 -3 3 0 29 6 58 6 30 14 66 16 80 6 27 22 34 174 72 84
22 86 21 99 -22z m-340 -110 c-15 -71 -17 -84 -18 -99 -1 -7 -9 -16 -18 -19
-10 -4 -35 -17 -56 -30 -22 -14 -40 -23 -42 -21 -3 3 20 122 29 144 5 13 108
85 114 79 1 -1 -3 -26 -9 -54z"/>
<path d="M2020 4661 c0 -5 8 -17 18 -29 22 -25 72 -47 72 -32 0 6 -4 10 -10
10 -5 0 -10 7 -10 15 0 8 -10 20 -22 27 -28 15 -48 19 -48 9z"/>
<path d="M1645 4628 c-33 -10 -67 -18 -76 -18 -17 0 -53 -29 -56 -45 -1 -6 -5
-23 -8 -38 -6 -21 -4 -27 8 -27 9 0 19 5 22 10 4 6 10 8 14 5 5 -2 34 5 65 16
31 11 61 17 67 14 5 -4 9 -3 9 2 0 4 12 9 26 9 36 3 37 7 20 56 -8 23 -15 36
-16 28 0 -10 -3 -11 -8 -4 -5 7 -25 5 -67 -8z"/>
<path d="M1355 4510 c-3 -5 -3 -15 0 -20 3 -6 -1 -13 -9 -16 -9 -3 -13 -10
-10 -15 3 -5 1 -9 -5 -9 -6 0 -8 -7 -5 -15 5 -13 8 -13 21 0 8 8 18 15 22 15
12 0 10 40 -2 40 -7 0 -3 7 7 15 17 13 17 15 4 15 -9 0 -20 -4 -23 -10z"/>
<path d="M3035 4660 c-60 -9 -144 -25 -185 -35 -97 -23 -306 -98 -393 -141
l-67 -34 17 -28 c9 -15 18 -29 19 -30 2 -2 44 17 95 42 51 25 97 46 102 46 5
0 23 6 40 14 82 37 245 78 398 101 120 18 401 20 498 4 247 -40 412 -90 596
-178 371 -177 704 -507 876 -867 l49 -102 29 27 29 26 -41 80 c-206 401 -518
709 -912 900 -182 88 -368 144 -597 180 -132 20 -408 18 -553 -5z"/>
<path d="M3065 4545 c-120 -16 -210 -37 -325 -75 -84 -28 -278 -111 -305 -131
-17 -12 -17 -115 0 -184 20 -77 14 -113 -26 -154 -25 -27 -40 -71 -24 -71 3 0
38 28 78 63 116 101 222 177 276 197 44 17 53 18 83 6 18 -8 46 -28 61 -44
l28 -29 -63 -33 c-74 -38 -226 -137 -341 -223 -45 -33 -83 -62 -85 -63 -2 -1
3 -30 10 -64 11 -55 14 -60 33 -54 11 4 110 9 219 11 233 5 249 1 278 -65 11
-24 17 -46 15 -49 -3 -2 -118 -4 -256 -4 -138 0 -251 -2 -251 -4 0 -3 11 -54
25 -113 14 -59 32 -134 40 -167 8 -33 17 -77 21 -98 l6 -37 1327 2 c1484 3
1366 -3 1430 75 25 31 31 47 31 86 0 53 -13 87 -34 87 -7 0 -32 -27 -55 -59
-23 -33 -50 -63 -61 -66 -10 -3 -590 -6 -1287 -6 -1049 0 -1267 2 -1264 13 8
30 13 109 7 131 -3 13 -17 40 -30 60 -29 43 -22 51 34 38 57 -13 107 -54 121
-99 l11 -37 81 0 c76 0 89 -3 170 -42 111 -54 152 -56 196 -12 31 31 42 81 21
94 -15 9 -12 35 4 35 24 0 40 -64 26 -105 -6 -19 -16 -35 -21 -35 -5 0 -9 -4
-9 -10 0 -7 312 -10 915 -10 518 0 915 4 915 9 0 5 -6 14 -14 20 -7 6 -16 24
-19 40 -8 38 -100 229 -150 311 -112 184 -282 369 -462 504 -142 107 -250 168
-440 250 -117 51 -309 99 -460 116 -119 13 -368 11 -480 -5z m400 -357 c53
-34 98 -84 121 -133 27 -57 25 -176 -3 -230 -69 -131 -217 -193 -344 -146
-120 46 -191 145 -190 270 0 109 55 196 155 247 46 23 60 25 136 22 70 -4 92
-9 125 -30z m435 7 c119 -42 469 -352 594 -528 25 -36 53 -68 62 -71 8 -3 13
-10 9 -16 -3 -5 -1 -19 5 -30 9 -16 8 -25 -1 -36 -11 -13 -18 -9 -54 26 l-41
41 -402 -3 c-381 -3 -402 -2 -402 15 0 27 27 74 52 91 19 13 58 16 224 16 217
0 246 -5 306 -52 26 -21 52 -31 85 -34 27 -2 60 -6 76 -10 15 -3 27 -1 27 4 0
23 -300 266 -451 366 -53 35 -129 81 -170 103 -41 21 -76 39 -78 41 -13 7 89
92 110 92 4 0 26 -7 49 -15z m-1403 -107 c-3 -8 -6 -5 -6 6 -1 11 2 17 5 13 3
-3 4 -12 1 -19z m840 -650 c-3 -8 -6 -5 -6 6 -1 11 2 17 5 13 3 -3 4 -12 1
-19z m59 -94 c-5 -13 -10 -14 -18 -6 -6 6 -8 18 -4 28 5 13 10 14 18 6 6 -6 8
-18 4 -28z m290 1 c-5 -14 -9 -15 -21 -5 -12 10 -13 16 -4 27 15 18 34 1 25
-22z m99 -5 c-9 -15 -25 -12 -32 6 -8 21 19 38 30 18 4 -8 5 -19 2 -24z m478
3 c-3 -7 -9 -13 -13 -13 -16 0 -22 21 -9 36 14 17 31 0 22 -23z m195 9 c-5
-27 -28 -26 -28 2 0 19 4 24 15 19 9 -3 15 -12 13 -21z m188 -7 c-5 -14 -9
-15 -21 -5 -12 10 -13 16 -4 27 15 18 34 1 25 -22z m190 -1 c-5 -13 -10 -14
-18 -6 -6 6 -8 18 -4 28 5 13 10 14 18 6 6 -6 8 -18 4 -28z m99 -4 c-9 -15
-22 -12 -29 7 -9 21 16 37 27 17 4 -8 5 -19 2 -24z m-1435 16 c0 -21 -21 -31
-30 -15 -5 7 -6 17 -4 21 9 14 34 9 34 -6z m94 6 c8 -13 -11 -35 -23 -28 -16
10 -14 36 3 36 8 0 17 -4 20 -8z m284 -9 c-4 -22 -22 -20 -26 1 -2 10 3 16 13
16 10 0 15 -7 13 -17z m102 3 c0 -21 -21 -31 -30 -15 -5 7 -6 17 -4 21 9 14
34 9 34 -6z m90 -7 c0 -24 -23 -21 -28 4 -2 10 3 17 12 17 10 0 16 -9 16 -21z
m98 4 c-5 -25 -28 -28 -28 -4 0 12 6 21 16 21 9 0 14 -7 12 -17z m190 0 c-4
-22 -22 -20 -26 1 -2 10 3 16 13 16 10 0 15 -7 13 -17z m196 9 c8 -13 -11 -35
-23 -28 -16 10 -14 36 3 36 8 0 17 -4 20 -8z m194 -9 c-2 -10 -10 -18 -18 -18
-8 0 -16 8 -18 18 -2 12 3 17 18 17 15 0 20 -5 18 -17z"/>
<path d="M3259 4186 c-113 -30 -183 -122 -181 -241 1 -110 60 -198 159 -235
98 -37 191 -18 262 51 59 59 76 100 76 189 -1 64 -5 81 -29 120 -36 58 -99
106 -156 119 -56 13 -74 13 -131 -3z m229 -165 c2 -13 12 -26 23 -28 14 -4 19
-14 18 -37 -2 -48 -9 -66 -25 -66 -8 0 -14 -9 -14 -20 0 -19 -7 -20 -166 -20
-142 0 -165 2 -160 15 3 8 -4 21 -16 29 -28 20 -32 87 -5 94 10 2 17 14 17 26
0 13 2 25 4 27 3 2 76 4 163 4 l158 0 3 -24z"/>
<path d="M3189 4004 c-18 -21 12 -28 32 -7 19 18 19 19 -1 19 -12 0 -26 -6
-31 -12z"/>
<path d="M3255 4000 c3 -5 8 -10 11 -10 2 0 4 5 4 10 0 6 -5 10 -11 10 -5 0
-7 -4 -4 -10z"/>
<path d="M3280 3994 c0 -8 5 -12 10 -9 6 3 10 10 10 16 0 5 -4 9 -10 9 -5 0
-10 -7 -10 -16z"/>
<path d="M3360 4002 c0 -15 26 -22 38 -10 7 7 20 7 42 0 24 -9 31 -9 27 1 -4
14 -107 23 -107 9z"/>
<path d="M3224 3973 c-4 -15 -12 -19 -30 -15 -17 3 -24 0 -24 -12 0 -10 8 -16
23 -16 13 0 29 -6 36 -12 11 -10 14 -10 18 0 6 15 37 16 65 1 14 -8 23 -8 31
0 15 15 64 14 71 -1 5 -10 7 -10 12 0 3 6 19 12 36 12 19 0 28 4 26 13 -3 6
-16 12 -29 12 -14 0 -27 8 -33 20 -8 20 -8 19 -19 -2 -12 -27 -33 -29 -59 -6
-16 14 -22 15 -36 5 -35 -25 -45 -25 -64 -2 -18 23 -19 23 -24 3z"/>
<path d="M3261 3897 c-18 -18 -13 -22 24 -22 41 0 44 6 11 21 -18 8 -28 8 -35
1z"/>
<path d="M3362 3894 c-14 -15 -13 -16 18 -16 42 0 51 2 45 12 -4 6 -11 8 -16
4 -5 -3 -15 -1 -22 4 -8 7 -16 5 -25 -4z"/>
<path d="M3190 3890 c0 -5 6 -10 14 -10 8 0 18 5 21 10 3 6 -3 10 -14 10 -12
0 -21 -4 -21 -10z"/>
<path d="M3440 3884 c0 -14 3 -14 15 -4 8 7 15 14 15 16 0 2 -7 4 -15 4 -8 0
-15 -7 -15 -16z"/>
<path d="M3854 4169 c-3 -6 -2 -15 3 -20 14 -14 43 0 36 17 -6 17 -29 19 -39
3z"/>
<path d="M3795 4140 c-3 -5 1 -10 10 -10 9 0 13 -4 10 -10 -8 -12 5 -13 24 -1
7 5 10 14 7 20 -9 14 -43 14 -51 1z"/>
<path d="M3914 4143 c4 -5 -9 -13 -31 -19 -21 -6 -36 -15 -34 -20 1 -5 7 -8
12 -6 5 1 9 -2 9 -7 0 -8 87 -65 100 -66 8 0 74 -48 81 -58 4 -5 12 -6 19 -2
8 5 11 4 6 -3 -4 -6 17 -24 49 -44 30 -18 55 -37 55 -41 0 -16 44 -45 63 -42
9 2 15 0 13 -4 -7 -11 59 -73 68 -64 4 5 6 4 4 -2 -4 -14 84 -92 105 -92 9 0
17 2 17 4 0 14 -95 111 -103 106 -6 -3 -7 -1 -3 5 3 6 -3 16 -15 22 -11 7 -19
14 -16 16 8 8 -87 95 -111 101 -14 3 -21 11 -18 19 3 8 1 14 -5 14 -5 0 -23
14 -39 30 -16 17 -34 30 -39 30 -6 0 -15 9 -21 20 -6 11 -17 20 -25 20 -8 0
-18 6 -22 13 -11 18 -98 77 -114 77 -7 0 -9 -3 -5 -7z"/>
<path d="M4003 3663 c9 -2 23 -2 30 0 6 3 -1 5 -18 5 -16 0 -22 -2 -12 -5z"/>
<path d="M4055 3660 c-3 -5 1 -10 9 -10 9 0 16 5 16 10 0 6 -4 10 -9 10 -6 0
-13 -4 -16 -10z"/>
<path d="M4090 3662 c0 -11 34 -22 70 -22 14 0 32 -4 40 -10 9 -5 -36 -6 -120
-2 -230 12 -335 9 -335 -8 0 -13 36 -15 257 -17 219 -1 256 0 251 13 -3 7 -9
12 -13 9 -5 -3 -12 0 -15 5 -15 24 -135 52 -135 32z"/>
<path d="M4430 3662 c0 -2 8 -14 18 -26 15 -19 20 -21 30 -10 8 8 8 14 2 14
-5 0 -10 6 -10 14 0 9 -9 14 -20 13 -11 -1 -20 -3 -20 -5z"/>
<path d="M4480 3601 c0 -10 30 -24 37 -17 3 3 2 9 -2 15 -8 13 -35 15 -35 2z"/>
<path d="M2254 4521 c4 -5 0 -12 -6 -14 -8 -3 -6 -6 5 -6 9 -1 17 6 17 14 0 8
-5 15 -11 15 -5 0 -8 -4 -5 -9z"/>
<path d="M1905 4480 c-118 -13 -324 -61 -350 -80 -5 -4 -22 -10 -37 -14 -51
-12 -199 -88 -249 -128 -69 -54 -91 -92 -86 -146 6 -57 23 -75 37 -38 73 193
832 392 1088 285 28 -12 52 -26 52 -30 0 -5 7 -9 15 -9 11 0 13 8 9 33 -10 52
-32 77 -92 105 -50 23 -71 26 -187 28 -71 1 -161 -1 -200 -6z m392 -53 c35
-18 62 -47 44 -47 -6 0 -27 6 -46 14 -19 8 -66 18 -105 22 -66 6 -99 22 -86
42 7 12 155 -12 193 -31z m-457 -6 c15 -28 15 -28 -37 -36 -61 -8 -247 -61
-291 -82 -29 -14 -35 -14 -43 -2 -14 23 -5 32 57 57 54 21 263 80 291 81 7 1
17 -8 23 -18z m-420 -133 c0 -18 -13 -29 -60 -52 -33 -16 -81 -49 -106 -74
-52 -50 -66 -49 -35 2 24 38 71 78 141 119 55 33 60 33 60 5z"/>
<path d="M1915 4325 c-289 -34 -603 -164 -660 -275 -13 -26 -13 -36 0 -87 8
-31 15 -71 15 -88 l0 -30 33 35 c94 104 328 197 619 249 140 25 311 28 394 6
32 -8 61 -20 65 -26 10 -16 18 12 9 31 -4 8 -11 37 -14 63 -19 126 -143 159
-461 122z m325 -26 c64 -14 95 -42 108 -98 l10 -43 -26 6 c-15 4 -50 10 -79
13 l-52 5 -16 52 c-9 28 -19 57 -21 64 -7 15 10 15 76 1z m-355 -51 c3 -24 8
-55 11 -70 5 -25 3 -28 -20 -28 -46 0 -248 -57 -337 -94 -13 -6 -17 1 -22 31
-3 21 -8 52 -12 69 l-7 30 84 29 c86 29 250 73 280 74 12 1 18 -11 23 -41z
m-431 -100 c2 -7 8 -37 13 -66 l10 -53 -41 -18 c-23 -10 -62 -34 -89 -54 -26
-21 -49 -37 -52 -37 -3 0 -5 11 -5 24 0 14 -4 36 -9 49 -14 36 18 80 92 127
68 43 76 46 81 28z"/>
<path d="M2219 4269 c-3 -28 3 -54 13 -64 8 -7 8 -5 3 5 -8 13 -6 13 8 1 9 -7
24 -10 33 -7 9 4 22 2 29 -4 9 -8 11 -4 7 15 -2 14 -8 22 -13 19 -5 -3 -9 0
-9 5 0 6 -7 11 -16 11 -8 0 -12 5 -9 10 3 6 2 10 -4 10 -5 0 -16 3 -25 6 -10
4 -16 1 -17 -7z"/>
<path d="M1714 4226 c-44 -13 -103 -33 -131 -46 -47 -21 -50 -24 -44 -52 3
-16 9 -29 14 -29 21 -1 107 26 107 34 0 5 6 7 14 4 8 -3 17 -3 21 1 3 4 12 7
18 7 7 1 30 6 52 12 22 6 53 14 68 17 24 6 27 11 25 41 -2 32 -5 35 -33 34
-16 -1 -66 -11 -111 -23z"/>
<path d="M1365 4080 c-39 -31 -50 -46 -52 -70 -1 -16 2 -30 7 -30 20 0 39 13
33 23 -3 5 -2 7 4 4 5 -3 25 5 45 18 27 19 35 30 33 52 -4 55 -4 55 -70 3z
m52 -26 c-3 -3 -12 -4 -19 -1 -8 3 -5 6 6 6 11 1 17 -2 13 -5z"/>
<path d="M1225 4280 c3 -5 8 -10 11 -10 2 0 4 5 4 10 0 6 -5 10 -11 10 -5 0
-7 -4 -4 -10z"/>
<path d="M2755 4170 c-4 -7 -3 -16 3 -22 14 -14 45 -2 40 15 -6 16 -34 21 -43
7z"/>
<path d="M2808 4141 c-9 -11 -14 -21 -12 -24 3 -2 -7 -2 -21 0 -14 3 -25 9
-25 13 0 4 -7 11 -15 14 -17 6 -78 -28 -137 -78 -21 -17 -54 -44 -74 -60 -20
-17 -40 -39 -44 -50 -5 -12 -9 -15 -9 -7 -1 10 -10 6 -30 -13 -16 -15 -37 -26
-46 -24 -10 2 -20 -4 -22 -12 -4 -13 -3 -13 6 0 7 11 10 7 9 -16 -1 -17 3 -38
8 -47 8 -14 15 -10 52 24 23 22 42 38 42 34 0 -3 12 6 27 20 15 14 33 25 40
25 7 0 13 5 13 10 0 6 7 10 16 10 8 0 13 4 10 9 -3 5 6 12 20 15 17 5 24 12
20 21 -3 9 0 12 9 9 12 -5 68 26 157 87 15 11 32 19 38 19 14 0 9 32 -5 37 -6
2 -18 -6 -27 -16z"/>
<path d="M1980 4090 c-194 -28 -365 -78 -513 -151 -97 -48 -103 -53 -90 -92 7
-17 15 -50 18 -72 4 -22 13 -62 20 -90 7 -27 18 -76 25 -107 8 -36 18 -58 27
-58 30 0 100 -42 117 -70 9 -17 18 -49 18 -72 0 -35 -5 -47 -31 -70 -17 -15
-39 -28 -47 -28 -12 0 -15 -6 -10 -22 3 -13 9 -40 12 -60 l7 -38 492 0 493 0
-8 33 c-4 17 -19 79 -33 137 -14 58 -33 141 -42 185 -10 44 -32 143 -50 220
-68 291 -75 324 -75 339 0 10 -9 16 -23 16 -13 0 -27 3 -31 7 -14 14 -155 11
-276 -7z m210 -20 c0 -5 -10 -15 -22 -21 -50 -27 -230 -182 -456 -394 -76 -71
-82 -74 -82 -43 0 13 -6 48 -14 78 -40 160 -58 252 -50 260 12 11 217 75 290
90 32 7 115 18 184 25 69 7 131 13 138 14 6 0 12 -3 12 -9z m-667 -241 c10
-46 26 -123 36 -170 10 -47 21 -91 24 -96 4 -6 0 -16 -8 -23 -12 -10 -24 -10
-59 0 l-44 12 -16 81 c-20 104 -42 208 -47 225 -4 13 69 62 86 58 5 -2 18 -40
28 -87z m807 21 c0 -10 6 -45 14 -77 36 -152 58 -254 55 -257 -2 -1 -21 -13
-42 -25 -21 -13 -43 -28 -50 -35 -6 -6 -41 -34 -76 -61 -36 -28 -72 -57 -81
-65 -9 -8 -34 -30 -56 -49 -21 -19 -53 -47 -70 -63 -31 -29 -32 -29 -160 -30
-128 -1 -129 0 -136 23 -21 75 -34 139 -29 139 11 0 140 109 296 250 184 166
318 278 328 273 4 -2 7 -13 7 -23z m-676 -587 c12 -77 11 -79 -41 -77 -43 2
-49 5 -58 30 -8 21 -7 28 3 32 7 2 25 15 40 28 37 33 48 30 56 -13z m826 -73
c0 -3 -32 -5 -70 -6 -79 -1 -79 -1 0 59 l45 34 12 -41 c7 -22 13 -43 13 -46z"/>
<path d="M2070 4040 c0 -5 -7 -7 -16 -3 -24 9 -254 -29 -247 -41 4 -5 -1 -7
-9 -3 -19 7 -98 -12 -98 -24 0 -5 -11 -9 -24 -9 -33 0 -57 -10 -50 -21 3 -5
-4 -9 -15 -9 -15 0 -19 -5 -16 -22 6 -31 59 -252 61 -256 1 -2 22 14 46 36 23
22 88 79 143 127 55 48 119 108 142 131 22 24 45 44 51 44 14 0 62 47 55 54
-10 9 -23 7 -23 -4z"/>
<path d="M1445 3860 c-9 -14 17 -150 28 -150 5 0 7 -10 6 -22 -1 -13 1 -31 6
-40 4 -10 8 -29 9 -42 0 -13 4 -22 9 -19 4 2 7 -2 7 -10 0 -10 7 -13 20 -10
24 6 24 6 6 69 -8 27 -17 73 -21 101 -4 29 -11 55 -16 59 -5 3 -9 21 -9 40 0
27 -4 34 -19 34 -11 0 -23 -5 -26 -10z"/>
<path d="M2275 3807 c-25 -18 -173 -147 -335 -293 -19 -17 -50 -45 -67 -60
-18 -16 -57 -50 -88 -74 -51 -42 -55 -48 -51 -80 2 -19 9 -48 15 -63 l11 -29
113 4 112 3 47 45 c25 25 67 63 92 84 25 21 43 44 39 49 -3 6 -1 7 6 3 6 -4
29 8 53 28 23 20 45 36 50 36 4 0 8 7 8 16 0 8 5 12 10 9 6 -3 16 0 24 7 7 7
23 19 34 27 24 17 22 38 -13 176 -13 50 -25 100 -27 112 l-3 22 -30 -22z"/>
<path d="M1603 3243 c-18 -7 -16 -30 1 -30 8 0 17 9 19 19 5 18 2 20 -20 11z"/>
<path d="M2338 4088 c-2 -6 2 -31 10 -54 l14 -43 24 28 c13 16 24 42 24 57 0
22 -3 26 -10 14 -8 -12 -13 -13 -30 -2 -24 15 -27 15 -32 0z m19 -20 c-3 -8
-6 -5 -6 6 -1 11 2 17 5 13 3 -3 4 -12 1 -19z"/>
<path d="M1324 3868 c-10 -16 -43 -32 -59 -29 -5 1 -5 -3 2 -10 10 -10 16 -9
30 2 16 13 17 12 5 -3 -12 -15 -12 -20 1 -33 21 -21 63 -25 59 -5 -2 8 -6 26
-9 39 -2 14 -8 31 -12 39 -7 13 -9 13 -17 0z m13 -30 c-3 -8 -6 -5 -6 6 -1 11
2 17 5 13 3 -3 4 -12 1 -19z"/>
<path d="M2485 3661 c-3 -6 -14 -8 -25 -6 -13 3 -20 -2 -20 -12 0 -10 6 -13
16 -9 12 5 14 1 9 -15 -7 -21 -6 -21 219 -17 124 1 226 5 226 8 0 3 -4 11 -9
19 -7 12 -35 13 -153 7 -78 -3 -171 -9 -205 -13 -40 -4 -63 -2 -63 4 0 15 41
23 145 29 50 3 92 8 94 10 2 2 -48 4 -112 4 -64 0 -118 -4 -122 -9z"/>
<path d="M2823 3663 c9 -2 25 -2 35 0 9 3 1 5 -18 5 -19 0 -27 -2 -17 -5z"/>
<path d="M2441 3604 c0 -11 3 -14 6 -6 3 7 2 16 -1 19 -3 4 -6 -2 -5 -13z"/>
<path d="M2920 3609 c0 -5 5 -7 10 -4 6 3 10 8 10 11 0 2 -4 4 -10 4 -5 0 -10
-5 -10 -11z"/>
<path d="M2650 3493 c0 -3 7 -15 17 -25 10 -11 17 -39 19 -76 1 -31 4 -56 6
-55 57 27 69 39 63 67 -6 35 -29 62 -67 82 -30 16 -38 17 -38 7z"/>
<path d="M1400 3462 l-25 -8 23 -19 c13 -11 37 -39 53 -62 32 -47 65 -56 93
-27 23 22 20 45 -11 83 -30 35 -82 48 -133 33z"/>
<path d="M5158 3455 c-38 -21 -62 -69 -48 -95 6 -11 18 -24 28 -29 18 -9 62 2
62 17 0 5 19 30 41 56 23 26 39 49 36 53 -14 14 -94 12 -119 -2z"/>
<path d="M1353 3453 c-15 -5 -17 -23 -4 -23 5 0 11 7 15 15 3 8 4 15 3 14 -1
0 -8 -3 -14 -6z"/>
<path d="M5065 3430 c3 -5 11 -10 16 -10 6 0 7 5 4 10 -3 6 -11 10 -16 10 -6
0 -7 -4 -4 -10z"/>
<path d="M1322 3390 c-18 -29 -13 -90 11 -135 17 -30 36 -47 80 -68 31 -15 61
-26 66 -23 13 9 -22 120 -49 154 -14 17 -35 45 -48 62 -27 35 -42 38 -60 10z"/>
<path d="M2825 3363 c-37 -4 -125 -43 -125 -55 0 -4 81 -8 180 -8 99 0 180 2
180 5 0 10 -94 45 -147 55 -31 5 -57 9 -57 9 -1 -1 -14 -4 -31 -6z"/>
<path d="M3962 2600 c0 -14 2 -19 5 -12 2 6 2 18 0 25 -3 6 -5 1 -5 -13z"/>
<path d="M4075 2611 c-3 -5 -1 -12 5 -16 5 -3 10 1 10 9 0 18 -6 21 -15 7z"/>
<path d="M1116 2718 c-9 -34 -7 -50 4 -43 13 8 13 0 -5 -65 -20 -76 -19 -80
15 -80 l30 0 -7 58 c-4 31 -7 71 -7 89 1 18 -3 30 -9 26 -5 -3 -4 4 2 16 9 17
9 21 -2 21 -8 0 -17 -10 -21 -22z"/>
<path d="M1070 2508 c0 -12 3 -17 8 -12 4 5 11 12 15 15 5 3 2 9 -7 12 -12 5
-16 0 -16 -15z"/>
<path d="M1173 2515 c0 -8 4 -15 9 -15 4 0 8 7 8 15 0 8 -4 15 -8 15 -5 0 -9
-7 -9 -15z"/>
<path d="M1367 2523 c-14 -4 -17 -11 -13 -26 3 -12 6 -30 6 -40 0 -10 5 -15
10 -12 6 4 8 11 5 16 -4 5 -3 15 2 22 7 11 16 48 10 46 -1 -1 -10 -3 -20 -6z"/>
<path d="M1580 2736 c0 -13 -3 -31 -6 -39 -4 -11 0 -15 13 -13 10 2 22 -2 26
-8 4 -6 5 3 1 19 -4 17 -11 35 -15 41 -5 6 -6 14 -2 17 3 4 1 7 -5 7 -7 0 -12
-11 -12 -24z"/>
<path d="M1582 2634 c-6 -22 -13 -54 -16 -71 -5 -31 -4 -33 25 -33 l31 0 -7
63 c-9 77 -21 92 -33 41z"/>
<path d="M1535 2510 c-3 -5 1 -10 10 -10 9 0 13 5 10 10 -3 6 -8 10 -10 10 -2
0 -7 -4 -10 -10z"/>
<path d="M1620 2516 c0 -2 7 -9 15 -16 12 -10 15 -10 15 4 0 9 -7 16 -15 16
-8 0 -15 -2 -15 -4z"/>
<path d="M1827 2743 c-4 -3 -7 -37 -7 -75 0 -68 0 -68 28 -68 46 1 61 20 57
74 -2 26 -9 54 -16 62 -12 14 -51 19 -62 7z m53 -48 c0 -8 -4 -15 -10 -15 -5
0 -10 7 -10 15 0 8 5 15 10 15 6 0 10 -7 10 -15z"/>
<path d="M1811 2574 c0 -11 3 -14 6 -6 3 7 2 16 -1 19 -3 4 -6 -2 -5 -13z"/>
<path d="M1885 2570 c-3 -5 -1 -10 4 -10 6 0 11 5 11 10 0 6 -2 10 -4 10 -3 0
-8 -4 -11 -10z"/>
<path d="M2571 2578 c1 -24 3 -35 6 -25 3 11 11 16 21 13 13 -4 17 1 19 24 2
26 -1 30 -22 30 -23 0 -25 -4 -24 -42z"/>
<path d="M3109 2743 c0 -5 -1 -37 -1 -73 0 -62 1 -65 25 -68 13 -2 32 4 41 13
23 23 21 97 -2 118 -19 17 -61 23 -63 10z m41 -48 c0 -8 -2 -15 -4 -15 -2 0
-6 7 -10 15 -3 8 -1 15 4 15 6 0 10 -7 10 -15z"/>
<path d="M3166 2575 c-9 -26 -7 -32 5 -12 6 10 9 21 6 23 -2 3 -7 -2 -11 -11z"/>
<path d="M3085 2570 c3 -5 8 -10 11 -10 2 0 4 5 4 10 0 6 -5 10 -11 10 -5 0
-7 -4 -4 -10z"/>
<path d="M3360 2748 c-1 -2 -2 -67 -3 -146 l-2 -142 36 0 c24 0 39 5 43 16 3
9 6 68 6 131 0 99 -3 118 -17 129 -15 11 -62 20 -63 12z m50 -53 c0 -8 -4 -15
-10 -15 -5 0 -10 7 -10 15 0 8 5 15 10 15 6 0 10 -7 10 -15z"/>
<path d="M4372 2693 c3 -58 3 -58 33 -54 35 4 45 15 45 55 0 32 -24 55 -58 56
-22 0 -23 -3 -20 -57z m48 1 c0 -8 -4 -12 -10 -9 -5 3 -10 10 -10 16 0 5 5 9
10 9 6 0 10 -7 10 -16z"/>
<path d="M4351 2614 c0 -11 3 -14 6 -6 3 7 2 16 -1 19 -3 4 -6 -2 -5 -13z"/>
<path d="M4370 2525 l0 -65 33 0 c43 0 57 15 57 60 0 43 -24 70 -63 70 -26 0
-27 -1 -27 -65z m55 16 c3 -5 1 -12 -5 -16 -5 -3 -10 1 -10 9 0 18 6 21 15 7z"/>
<path d="M4672 2731 c2 -17 2 -28 -2 -26 -3 2 -6 -30 -6 -70 -1 -45 -6 -80
-14 -90 -11 -13 -7 -15 30 -15 33 0 40 3 32 13 -5 6 -13 38 -17 70 -4 31 -11
57 -16 57 -5 0 -9 4 -9 10 0 5 6 7 13 5 8 -4 12 5 12 25 0 16 -4 30 -8 30 -5
0 -5 5 -2 10 3 6 1 10 -6 10 -7 0 -10 -11 -7 -29z"/>
<path d="M4630 2509 c0 -5 5 -7 10 -4 6 3 10 8 10 11 0 2 -4 4 -10 4 -5 0 -10
-5 -10 -11z"/>
<path d="M4716 2509 c3 -5 12 -9 21 -9 19 0 9 13 -12 16 -8 1 -13 -2 -9 -7z"/>
<path d="M4910 2675 c0 -73 1 -75 24 -75 49 0 56 8 56 71 0 62 -13 79 -59 79
-19 0 -21 -6 -21 -75z m50 20 c0 -8 -4 -15 -10 -15 -5 0 -10 7 -10 15 0 8 5
15 10 15 6 0 10 -7 10 -15z"/>
<path d="M4888 2573 c7 -3 16 -2 19 1 4 3 -2 6 -13 5 -11 0 -14 -3 -6 -6z"/>
<path d="M4965 2570 c3 -5 8 -10 11 -10 2 0 4 5 4 10 0 6 -5 10 -11 10 -5 0
-7 -4 -4 -10z"/>
<path d="M5160 2695 l0 -55 33 0 c40 0 60 30 45 70 -11 29 -25 40 -55 40 -21
0 -23 -5 -23 -55z"/>
<path d="M5142 2612 c-1 -24 0 -25 9 -9 7 11 7 23 2 28 -5 5 -9 -3 -11 -19z"/>
<path d="M5160 2525 l0 -65 33 0 c43 0 57 15 57 61 0 42 -27 69 -67 69 -22 0
-23 -4 -23 -65z m60 16 c0 -6 -4 -13 -10 -16 -5 -3 -10 1 -10 9 0 9 5 16 10
16 6 0 10 -4 10 -9z"/>
<path d="M5145 2440 c3 -5 8 -10 11 -10 2 0 4 5 4 10 0 6 -5 10 -11 10 -5 0
-7 -4 -4 -10z"/>
<path d="M5392 2608 c5 -15 28 -23 28 -10 0 5 -7 13 -16 16 -10 4 -14 1 -12
-6z"/>
<path d="M5649 2745 c0 -3 0 -35 -1 -72 0 -71 5 -79 47 -69 23 6 25 11 25 64
0 32 -5 63 -12 70 -12 12 -57 17 -59 7z m38 -57 c-3 -8 -6 -5 -6 6 -1 11 2 17
5 13 3 -3 4 -12 1 -19z"/>
<path d="M5620 2580 c0 -5 5 -10 10 -10 6 0 10 5 10 10 0 6 -4 10 -10 10 -5 0
-10 -4 -10 -10z"/>
<path d="M5700 2570 c-9 -6 -10 -10 -3 -10 6 0 15 5 18 10 8 12 4 12 -15 0z"/>
<path d="M1540 1971 c-77 -32 -128 -111 -118 -182 2 -18 10 -25 30 -27 21 -3
37 7 74 47 41 44 54 51 86 51 24 0 46 -8 62 -22 25 -23 136 -192 136 -209 0
-4 8 -13 18 -18 15 -9 15 -12 2 -21 -12 -8 -13 -10 -1 -10 8 0 11 -3 8 -7 -4
-3 -3 -11 3 -18 6 -7 5 -25 -2 -48 -8 -26 -14 -33 -20 -25 -5 9 -8 4 -8 -13 0
-14 4 -29 10 -35 5 -5 19 -46 30 -89 32 -128 64 -145 280 -145 236 0 453 51
688 163 35 16 86 51 114 78 50 47 51 48 45 96 -14 108 -20 143 -26 143 -3 0
-21 -16 -39 -34 -69 -71 -232 -149 -408 -195 -163 -43 -232 -53 -394 -58 -145
-4 -172 -3 -219 14 -62 21 -76 39 -31 39 16 0 30 -4 30 -9 0 -6 2 -8 5 -6 2 3
-1 23 -7 45 -6 21 -11 45 -9 52 1 6 -2 12 -8 12 -5 0 -7 9 -4 21 3 12 2 24 -4
28 -13 9 -39 84 -58 171 -9 41 -23 101 -31 133 -8 32 -14 67 -14 78 0 17 -8
19 -87 18 -61 0 -102 -6 -133 -18z m1405 -417 c6 -45 4 -53 -19 -81 -33 -39
-93 -76 -102 -62 -3 6 -4 13 -1 16 3 2 -1 26 -9 51 -7 26 -14 48 -14 49 0 1
20 14 44 28 23 14 51 34 61 45 24 26 32 17 40 -46z m-374 -181 c7 -32 13 -62
14 -67 0 -16 -201 -60 -329 -72 l-73 -7 -7 34 c-4 19 -9 48 -12 66 l-6 31 69
6 c37 4 82 11 98 16 17 5 51 12 77 15 26 4 65 13 85 21 65 23 70 20 84 -43z
m-579 -11 l88 -4 6 -37 c3 -20 9 -48 14 -63 5 -15 6 -29 2 -32 -16 -8 -146 15
-175 31 -22 14 -33 30 -43 68 -7 28 -13 52 -14 54 0 2 8 0 18 -4 9 -4 56 -10
104 -13z"/>
<path d="M2875 1540 c-16 -11 -30 -24 -29 -30 1 -5 2 -21 3 -35 1 -23 3 -25
24 -14 31 17 46 40 47 72 0 32 -5 33 -45 7z"/>
<path d="M2485 1387 c-22 -5 -49 -13 -60 -17 -11 -5 -64 -14 -117 -21 -79 -9
-98 -15 -98 -28 0 -14 -2 -14 -11 -1 -8 12 -9 10 -5 -10 3 -14 6 -31 6 -38 0
-7 5 -10 10 -7 6 3 10 2 10 -4 0 -6 6 -8 13 -6 13 5 198 34 235 37 12 1 22 5
22 9 0 4 14 10 30 14 20 4 28 11 23 18 -4 7 -6 22 -5 34 4 28 -5 31 -53 20z"/>
<path d="M1918 1321 c10 -31 34 -49 78 -60 54 -14 64 -9 64 29 0 33 -8 37 -97
43 -43 3 -50 1 -45 -12z"/>
<path d="M1804 1968 c4 -13 14 -54 22 -92 8 -38 17 -73 20 -78 3 -4 9 -29 14
-56 5 -26 18 -87 30 -137 11 -49 24 -106 28 -125 7 -31 11 -35 52 -43 85 -16
355 12 490 50 159 45 261 85 353 141 25 15 37 29 37 45 0 22 -18 105 -56 255
l-16 62 -490 0 -490 0 6 -22z m153 -63 c6 -33 16 -78 22 -100 6 -22 11 -45 11
-51 0 -12 -70 -64 -86 -64 -5 0 -15 28 -21 63 -6 34 -18 96 -27 137 -9 41 -16
76 -16 78 0 2 24 2 52 0 l53 -3 12 -60z m283 55 c0 -5 -3 -10 -7 -10 -8 0 -43
-29 -126 -106 -26 -24 -51 -44 -55 -44 -4 0 -13 28 -20 63 -6 34 -15 72 -18
85 -6 22 -6 22 110 22 71 0 116 -4 116 -10z m521 -30 c4 -19 19 -84 33 -145
14 -60 26 -113 26 -116 0 -8 -153 -83 -223 -109 -70 -26 -229 -66 -297 -75
-30 -4 -64 -8 -75 -10 -100 -17 -105 -17 -105 5 0 12 -4 30 -10 40 -8 15 -3
24 32 52 39 31 195 166 229 198 69 65 123 113 172 153 l59 48 76 -3 77 -3 6
-35z m-698 -441 c7 -25 -8 -31 -64 -27 l-44 3 45 22 c57 27 57 27 63 2z"/>
<path d="M1875 1916 c3 -12 8 -30 11 -41 7 -24 25 -116 26 -132 1 -8 8 -8 25
0 13 6 22 16 19 23 -3 7 -8 30 -12 51 -4 21 -12 41 -18 45 -8 5 -7 8 2 8 10 0
10 5 1 23 -7 12 -12 23 -11 25 1 1 2 8 2 15 0 8 -4 7 -10 -3 -5 -8 -10 -10
-10 -4 0 6 -7 11 -16 11 -11 0 -14 -6 -9 -21z"/>
<path d="M2053 1929 c-6 -6 -9 -18 -6 -26 5 -12 7 -12 15 -1 6 8 7 2 3 -19
l-7 -33 31 18 c17 9 31 22 31 28 0 7 9 14 20 17 11 3 20 10 20 16 0 15 -93 14
-107 0z"/>
<path d="M2559 1901 c-22 -21 -39 -37 -39 -36 0 2 -13 -9 -29 -23 -75 -69
-111 -101 -178 -158 -39 -34 -69 -65 -66 -68 4 -3 -1 -6 -10 -6 -9 0 -17 -4
-17 -10 0 -5 -7 -10 -15 -10 -8 0 -15 -7 -15 -15 0 -8 -9 -15 -19 -15 -20 0
-31 -18 -31 -51 0 -23 -2 -23 145 1 130 22 343 85 443 132 63 30 63 30 57 66
-3 21 -15 73 -26 117 -11 44 -21 87 -23 95 -4 20 -91 26 -114 8 -12 -10 -14
-10 -8 0 16 26 -18 10 -55 -27z"/>
<path d="M2830 1983 c1 -5 11 -48 23 -97 21 -86 24 -90 54 -98 49 -13 79 -58
99 -145 11 -48 28 -92 45 -117 16 -21 29 -45 29 -53 0 -11 76 -13 433 -13
l432 0 0 -125 0 -125 -464 0 -463 0 5 -26 c2 -14 1 -38 -4 -52 -5 -15 -16 -56
-25 -92 -14 -57 -21 -69 -52 -90 -86 -57 -86 -55 0 -57 42 0 94 -7 115 -14 63
-22 454 -19 573 5 257 50 443 118 634 231 186 110 356 254 479 405 34 41 64
77 67 80 14 12 120 177 120 187 0 5 9 18 20 28 11 10 20 23 20 29 0 8 -188 10
-666 8 l-665 -2 20 -26 c31 -40 27 -134 -5 -134 -17 0 -18 14 -3 39 16 24 4
67 -27 98 -23 23 -32 25 -82 21 -37 -3 -92 -20 -156 -47 -55 -24 -114 -45
-131 -48 -31 -5 -33 -7 -28 -42 5 -46 -21 -98 -66 -128 -19 -13 -37 -23 -41
-23 -4 0 -10 33 -12 73 -4 60 -11 82 -41 132 -19 34 -47 67 -61 75 -15 7 -25
18 -24 22 2 5 418 9 963 9 528 -1 1000 -1 1048 -1 l88 0 51 -51 c77 -77 122
-53 92 49 -16 56 -29 71 -89 98 l-50 24 -1127 0 c-621 0 -1128 -3 -1128 -7z
m2005 -214 c-7 -20 -8 -21 -17 -5 -5 9 -7 24 -4 33 10 26 29 -1 21 -28z
m-1050 11 c0 -22 -29 -18 -33 3 -3 14 1 18 15 15 10 -2 18 -10 18 -18z m95 0
c0 -11 -7 -20 -15 -20 -8 0 -15 9 -15 20 0 11 7 20 15 20 8 0 15 -9 15 -20z
m100 6 c0 -8 -5 -18 -11 -22 -14 -8 -33 11 -25 25 10 16 36 13 36 -3z m94 6
c2 -4 1 -14 -4 -22 -7 -11 -12 -12 -21 -3 -6 6 -8 16 -5 22 8 13 23 14 30 3z
m94 -9 c-5 -25 -28 -28 -28 -4 0 12 6 21 16 21 9 0 14 -7 12 -17z m98 6 c10
-17 -13 -36 -27 -22 -12 12 -4 33 11 33 5 0 12 -5 16 -11z m94 -9 c0 -11 -7
-20 -15 -20 -8 0 -15 9 -15 20 0 11 7 20 15 20 8 0 15 -9 15 -20z m98 3 c-5
-25 -28 -28 -28 -4 0 12 6 21 16 21 9 0 14 -7 12 -17z m92 -3 c0 -11 -7 -20
-15 -20 -15 0 -21 21 -8 33 12 13 23 7 23 -13z m100 0 c0 -11 -6 -20 -14 -20
-18 0 -29 16 -21 30 11 18 35 11 35 -10z m95 0 c0 -22 -29 -18 -33 3 -3 14 1
18 15 15 10 -2 18 -10 18 -18z m-525 -388 c0 -4 -43 -49 -95 -100 -52 -51 -95
-86 -95 -79 0 7 14 27 31 45 18 18 28 36 23 43 -4 8 -3 9 5 5 11 -7 50 29 51
47 0 4 -29 7 -65 7 l-65 0 2 -92 3 -93 73 -1 c70 -2 72 -1 50 15 -13 9 -27 14
-33 12 -52 -17 -59 -3 -11 23 l34 18 46 -47 c25 -27 46 -49 46 -50 0 -1 -52
-2 -115 -1 l-116 1 0 120 c0 66 0 123 0 128 1 10 231 9 231 -1z m-267 -249
c-3 -22 0 -23 82 -23 50 0 85 -4 85 -10 0 -6 -38 -10 -95 -10 -95 0 -95 0 -95
25 l0 25 -445 0 c-293 0 -445 3 -445 10 0 7 154 9 458 8 l457 -3 -2 -22z"/>
<path d="M3060 1842 c0 -20 106 -62 157 -62 46 0 178 42 200 63 3 4 -75 7
-175 7 -100 0 -182 -4 -182 -8z"/>
<path d="M5020 1817 c-37 -18 -40 -78 -6 -111 33 -34 70 -41 118 -25 60 20 96
62 44 52 -18 -4 -35 7 -75 46 -28 28 -52 51 -54 51 -1 0 -13 -6 -27 -13z"/>
<path d="M1555 1769 c-50 -52 -66 -56 -117 -34 -11 4 -18 3 -18 -4 0 -6 3 -10
8 -9 4 2 24 -10 45 -26 47 -36 115 -46 152 -22 34 22 55 65 45 92 -8 20 -46
54 -60 54 -3 0 -28 -23 -55 -51z"/>
<path d="M3092 1773 c21 -23 48 -106 48 -143 0 -33 5 -36 24 -17 24 24 36 56
36 96 0 38 -2 41 -40 51 -21 6 -42 15 -45 20 -3 6 -13 10 -22 10 -15 0 -15 -2
-1 -17z"/>
<path d="M2860 1768 c0 -2 6 -26 14 -55 8 -28 13 -53 12 -55 0 -2 13 12 31 31
27 29 29 36 17 48 -7 8 -23 16 -34 18 -11 2 -25 7 -30 10 -6 3 -10 5 -10 3z"/>
<path d="M1700 1741 c0 -5 7 -12 16 -15 14 -5 15 -4 4 9 -14 17 -20 19 -20 6z"/>
<path d="M4940 1739 c0 -5 5 -7 10 -4 6 3 10 8 10 11 0 2 -4 4 -10 4 -5 0 -10
-5 -10 -11z"/>
<path d="M5216 1735 c-9 -26 -7 -32 5 -12 6 10 9 21 6 23 -2 3 -7 -2 -11 -11z"/>
<path d="M2940 1700 c0 -5 5 -10 10 -10 6 0 10 5 10 10 0 6 -4 10 -10 10 -5 0
-10 -4 -10 -10z"/>
<path d="M4909 1658 c-110 -180 -333 -402 -537 -535 -109 -72 -352 -193 -386
-193 -6 0 -24 -7 -39 -15 -15 -8 -45 -17 -65 -21 -20 -4 -41 -10 -47 -14 -5
-5 -32 -11 -60 -15 -27 -4 -57 -11 -65 -15 -29 -15 -302 -41 -408 -39 -118 2
-318 23 -372 38 -72 21 -96 22 -152 10 -32 -7 -58 -16 -58 -20 0 -9 72 -32
165 -52 438 -98 905 -44 1305 150 122 60 280 158 370 231 135 110 302 292 399
435 30 45 32 50 17 66 -9 10 -16 23 -16 29 0 26 -20 10 -51 -40z"/>
<path d="M1700 1690 c0 -5 -9 -19 -20 -30 -20 -20 -20 -20 43 -107 49 -69 63
-83 65 -66 2 12 10 27 18 33 21 18 19 23 -36 96 -27 37 -50 71 -50 75 0 5 -4
9 -10 9 -5 0 -10 -4 -10 -10z"/>
<path d="M3010 1465 c0 -24 -72 -90 -146 -133 -107 -61 -288 -122 -469 -158
-129 -26 -401 -26 -467 -1 -25 10 -52 25 -58 32 -19 23 -29 8 -20 -31 15 -67
57 -96 177 -120 82 -17 177 -16 328 5 303 42 633 191 681 308 17 39 9 113 -12
113 -8 0 -14 -7 -14 -15z m-19 -114 c-27 -34 -128 -111 -145 -111 -3 0 -6 10
-6 23 0 16 12 28 46 46 25 14 65 43 88 65 49 49 61 33 17 -23z m-381 -185 c0
-22 -6 -26 -57 -36 -32 -6 -71 -16 -88 -20 -16 -5 -76 -15 -133 -23 -84 -10
-105 -10 -114 0 -21 25 -1 39 58 42 31 1 78 6 103 11 111 23 184 40 189 45 3
3 14 5 24 5 12 0 18 -7 18 -24z m-687 -21 c20 -8 74 -18 120 -21 68 -6 86 -10
96 -26 7 -11 10 -22 7 -25 -3 -3 -49 2 -102 11 -95 16 -149 37 -158 63 -7 16
-6 16 37 -2z"/>
<path d="M3070 1442 c0 -6 5 -12 11 -14 9 -3 9 -9 1 -23 -6 -11 -18 -37 -27
-58 -25 -59 -112 -141 -190 -180 -86 -43 -132 -63 -165 -72 -14 -3 -34 -10
-45 -15 -134 -57 -572 -102 -647 -66 -11 5 -18 4 -18 -1 0 -18 131 -178 158
-193 39 -21 235 -19 337 4 200 43 307 83 407 149 51 34 46 24 88 215 7 28 16
55 21 58 5 3 6 -2 3 -10 -7 -18 7 -21 22 -6 5 5 33 10 61 11 49 2 51 3 43 25
-6 15 -4 28 5 40 17 23 19 51 4 56 -7 2 -13 19 -14 38 -1 23 -6 34 -14 32 -7
-1 -19 3 -27 9 -9 7 -14 8 -14 1z m-141 -344 c-15 -57 -26 -79 -52 -100 -39
-34 -51 -35 -43 -5 3 12 6 45 6 74 0 50 1 52 43 76 65 38 67 36 46 -45z m-317
-141 l-4 -75 -46 -11 c-92 -20 -224 -43 -226 -39 -15 18 -72 139 -68 143 3 3
24 5 46 5 40 0 202 30 261 48 17 5 32 8 35 7 3 -2 4 -37 2 -78z m-397 -50 c16
-34 31 -66 33 -71 5 -9 -51 0 -88 16 -14 5 -44 34 -68 64 l-42 54 67 0 68 -1
30 -62z"/>
<path d="M2881 1106 c-11 -13 -11 -20 -3 -28 15 -15 24 -5 20 23 -3 21 -4 21
-17 5z"/>
<path d="M2870 1050 c0 -5 5 -10 10 -10 6 0 10 5 10 10 0 6 -4 10 -10 10 -5 0
-10 -4 -10 -10z"/>
<path d="M2512 979 c-13 -5 -43 -10 -67 -11 -24 0 -42 -4 -40 -8 2 -3 -11 -4
-28 -3 -18 2 -39 -1 -46 -6 -13 -8 -12 -15 4 -45 20 -37 40 -52 50 -35 4 5 11
7 16 4 5 -4 47 2 94 11 50 11 80 21 72 26 -9 6 -9 8 2 8 9 0 12 8 9 25 -3 14
0 25 6 26 13 1 -24 18 -39 18 -5 0 -20 -4 -33 -10z"/>
<path d="M2120 941 c0 -10 50 -65 50 -55 0 5 5 2 11 -6 8 -11 9 -9 3 10 -9 35
-26 55 -46 56 -10 1 -18 -1 -18 -5z"/>
<path d="M3267 1434 c-12 -12 -8 -36 5 -28 8 5 9 0 4 -17 -4 -13 -8 -28 -9
-34 -2 -5 -5 -14 -8 -20 -6 -12 -5 -24 5 -48 5 -10 3 -23 -3 -31 -9 -10 -1
-13 37 -14 26 -1 42 1 37 6 -14 9 -47 94 -34 87 5 -4 9 10 9 29 0 19 7 42 16
50 14 14 12 15 -15 12 -17 -2 -32 1 -33 6 -2 5 -7 6 -11 2z m21 -139 c-3 -3
-9 2 -12 12 -6 14 -5 15 5 6 7 -7 10 -15 7 -18z"/>
<path d="M3443 1415 c13 -26 12 -148 -2 -153 -23 -8 -10 -22 20 -22 23 0 30 4
26 14 -3 8 6 35 19 60 14 25 21 46 17 45 -33 -5 -47 33 -22 58 8 8 0 12 -29
15 -38 3 -40 2 -29 -17z"/>
<path d="M3676 1431 c-3 -4 -17 -6 -30 -4 -21 4 -24 2 -19 -16 3 -12 9 -21 13
-21 5 0 0 -17 -10 -37 -15 -32 -16 -40 -4 -57 9 -13 10 -25 4 -36 -8 -16 -3
-17 47 -17 l57 0 -29 23 c-16 12 -32 21 -37 18 -16 -10 -8 42 12 74 11 18 20
39 20 47 0 8 6 15 13 15 8 0 7 4 -3 10 -19 12 -27 12 -34 1z"/>
<path d="M3815 1432 c-12 -8 -15 -112 -3 -112 5 0 4 -9 -2 -20 -6 -11 -7 -20
-3 -20 4 0 2 -5 -5 -12 -20 -20 -14 -23 47 -26 59 -3 59 -2 66 28 4 16 3 59 0
95 -7 63 -8 65 -35 65 -16 0 -34 2 -42 5 -7 3 -18 1 -23 -3z"/>
<path d="M3550 1422 c-18 -6 -30 -22 -30 -39 0 -18 27 -16 34 2 3 8 10 15 16
15 19 0 10 -32 -20 -70 -42 -53 -39 -67 15 -72 28 -2 46 1 49 8 6 17 -3 24
-31 24 l-24 0 25 33 c26 34 32 63 18 83 -10 15 -34 22 -52 16z"/>
<path d="M3162 1408 c-15 -15 -16 -38 -1 -38 7 0 18 8 25 18 12 16 13 16 19 0
4 -11 -5 -33 -24 -62 -42 -61 -40 -68 17 -64 52 3 62 20 17 28 -26 5 -27 6
-11 19 31 26 48 69 36 91 -12 23 -59 27 -78 8z"/>
<path d="M3347 1413 c-4 -3 -7 -37 -7 -74 0 -66 1 -69 27 -75 43 -11 58 6 61
70 2 34 -2 64 -9 72 -12 14 -60 19 -72 7z m51 -71 c2 -42 0 -52 -12 -52 -13 0
-16 12 -16 56 0 73 24 70 28 -4z"/>
<path d="M3715 1365 c-29 -59 -28 -87 3 -78 14 3 21 -2 25 -16 3 -12 9 -21 14
-21 13 0 33 59 22 66 -5 3 -9 27 -9 55 0 67 -21 65 -55 -6z m35 -29 c0 -17
-14 -29 -23 -20 -8 8 3 34 14 34 5 0 9 -6 9 -14z"/>
<path d="M1830 1229 c0 -5 5 -7 10 -4 6 3 10 8 10 11 0 2 -4 4 -10 4 -5 0 -10
-5 -10 -11z"/>
<path d="M1960 1033 c5 -2 8 -9 4 -14 -3 -5 0 -9 6 -9 15 0 7 23 -8 26 -7 1
-8 0 -2 -3z"/>
<path d="M2845 910 c-3 -6 1 -7 9 -4 18 7 21 14 7 14 -6 0 -13 -4 -16 -10z"/>
</g>
</svg>
